<svg xmlns="http://www.w3.org/2000/svg" xmlns:xlink="http://www.w3.org/1999/xlink" width="30.909" height="30.909" viewBox="0 0 30.909 30.909">
  <defs>
    <clipPath id="clip-path">
      <path id="Path_178" data-name="Path 178" d="M23.151-41H43.757a5.382,5.382,0,0,1,5.151,5.138v15.412a5.626,5.626,0,0,1-5.151,5.138H32.167c-.154-.155-.6.027-1.288,0l-3.864,5.138c-.959.265-1.786-.1-1.288-1.285v-2.569a2.267,2.267,0,0,0-2.576-1.285A5.627,5.627,0,0,1,18-20.449V-35.862A5.383,5.383,0,0,1,23.151-41Zm0,10.3a1.285,1.285,0,0,0,1.289,1.288H42.468A1.286,1.286,0,0,0,43.757-30.7a1.285,1.285,0,0,0-1.289-1.288H24.44A1.286,1.286,0,0,0,23.151-30.7Zm0,5.151a1.283,1.283,0,0,0,1.285,1.288h9.021a1.286,1.286,0,0,0,1.285-1.288,1.283,1.283,0,0,0-1.285-1.288H24.436A1.286,1.286,0,0,0,23.151-25.546Z" transform="translate(-18 41)" fill="none" clip-rule="evenodd"/>
    </clipPath>
    <clipPath id="clip-path-2">
      <path id="Path_177" data-name="Path 177" d="M-1500,313.626H534.832V-1000H-1500Z" transform="translate(1500 1000)" fill="none"/>
    </clipPath>
  </defs>
  <g id="Group_430" data-name="Group 430" clip-path="url(#clip-path)">
    <g id="Group_429" data-name="Group 429" transform="translate(-1954.984 -1235.066)" clip-path="url(#clip-path-2)">
      <path id="Path_176" data-name="Path 176" d="M13-2.212H56.788V-46H13Z" transform="translate(1935.545 1274.626)" fill="#fff"/>
    </g>
  </g>
</svg>
